<svg width="71" height="73" viewBox="0 0 71 73" fill="none" xmlns="http://www.w3.org/2000/svg">
<path d="M35.5001 66.9169C19.1691 66.8984 5.93468 53.2912 5.91675 36.5002V35.8919C6.24196 19.1765 19.6274 5.86442 35.8867 6.08623C52.1459 6.30804 65.1831 19.9806 65.0769 36.699C64.9706 53.4173 51.7608 66.9135 35.5001 66.9169ZM35.5001 12.1669C22.4293 12.1669 11.8334 23.0613 11.8334 36.5002C11.8334 49.9391 22.4293 60.8335 35.5001 60.8335C48.5708 60.8335 59.1667 49.9391 59.1667 36.5002C59.1521 23.0675 48.5647 12.182 35.5001 12.1669ZM35.5001 51.7086L31.3288 47.4198L38.9613 39.5419H20.7084V33.4586H38.9613L31.3288 25.5806L35.5001 21.2919L50.2917 36.5002L35.5001 51.7086Z" fill="#2E3A59"/>
</svg>
