<?xml version="1.0" encoding="iso-8859-1"?>
<!-- Uploaded to: SVG Repo, www.svgrepo.com, Generator: SVG Repo Mixer Tools -->
<svg height="30px" width="30px" version="1.1" id="Layer_1" xmlns="http://www.w3.org/2000/svg" xmlns:xlink="http://www.w3.org/1999/xlink" 
	 viewBox="0 0 511.787 511.787" xml:space="preserve">
<g transform="translate(1 1)">
	<path style="fill:#FFDD09;" d="M409.345,166.893l-8.533-2.56c-4.267-0.853-6.827-5.973-5.973-10.24l23.893-90.453
		c1.707-5.12,6.827-7.68,11.093-6.827l8.533,2.56c4.267,0.853,6.827,5.973,5.973,10.24l-24.747,91.307
		C418.732,165.187,413.612,167.747,409.345,166.893"/>
	<path style="fill:#FD9808;" d="M390.572,73.027l-65.707-17.92l6.827-24.747c0.853-4.267,5.973-6.827,10.24-5.973l49.493,13.653
		c4.267,0.853,6.827,5.973,5.973,10.24L390.572,73.027z"/>
	<g>
		<polygon style="fill:#FCC309;" points="363.265,172.013 297.559,154.093 324.012,55.107 390.572,73.027 		"/>
		<polygon style="fill:#FCC309;" points="339.372,229.187 355.585,169.453 306.092,156.653 286.465,229.187 		"/>
		<polygon style="fill:#FCC309;" points="198.572,229.187 266.839,229.187 266.839,84.12 198.572,84.12 		"/>
	</g>
	<path style="fill:#54C9FD;" d="M232.705,7.32l-12.8,16.213c-13.653,17.067-21.333,38.4-21.333,60.587h68.267
		c0-22.187-7.68-43.52-21.333-60.587L232.705,7.32z"/>
	<path style="fill:#1CD759;" d="M137.132,74.733l-65.707,17.92l-4.267-17.067c-5.12-17.92,5.973-36.693,23.893-41.813
		c17.92-4.267,36.693,5.973,41.813,24.747L137.132,74.733z"/>
	<path style="fill:#FCC309;" d="M113.239,229.187h65.707L137.132,74.733l-65.707,17.92l36.693,137.387
		C109.825,229.187,111.532,229.187,113.239,229.187"/>
	<g>
		<path style="fill:#FFDD09;" d="M377.772,229.187h-26.453c14.507,0,25.6,11.093,25.6,25.6s-11.093,25.6-25.6,25.6h26.453
			c14.507,0,25.6-11.093,25.6-25.6S392.279,229.187,377.772,229.187"/>
		<path style="fill:#FFDD09;" d="M325.719,280.387H139.692c-14.507,0-25.6-11.093-25.6-25.6s11.093-25.6,25.6-25.6h186.88
			c14.507,0,25.6,11.093,25.6,25.6S340.225,280.387,325.719,280.387"/>
	</g>
	<path style="fill:#FFFFFF;" d="M114.092,254.787c0-14.507,11.093-25.6,25.6-25.6h-26.453c-14.507,0-25.6,11.093-25.6,25.6
		s11.093,25.6,25.6,25.6h26.453C125.185,280.387,114.092,269.293,114.092,254.787"/>
	<path style="fill:#FD9808;" d="M352.172,229.187h-26.453c14.507,0,25.6,11.093,25.6,25.6s-11.093,25.6-25.6,25.6h26.453
		c14.507,0,25.6-11.093,25.6-25.6S366.679,229.187,352.172,229.187"/>
	<g>
		<path style="fill:#FFDD09;" d="M352.172,280.387v204.8c0,14.507-9.387,25.6-20.48,25.6h20.48c14.507,0,25.6-11.093,25.6-25.6
			v-204.8H352.172z"/>
		<path style="fill:#FFDD09;" d="M306.092,502.253H159.319c-11.093,0-20.48-11.093-20.48-25.6V280.387h187.733v196.267
			C326.572,491.16,317.185,502.253,306.092,502.253"/>
	</g>
	<path style="fill:#FFFFFF;" d="M138.839,476.653V280.387h-25.6v196.267c0,14.507,11.093,25.6,25.6,25.6h20.48
		C148.225,502.253,138.839,491.16,138.839,476.653"/>
	<path style="fill:#FD9808;" d="M326.572,280.387v196.267c0,14.507-9.387,25.6-20.48,25.6h20.48c14.507,0,25.6-11.093,25.6-25.6
		V280.387H326.572z"/>
	<polygon style="fill:#33A9F8;" points="326.572,442.52 352.172,442.52 352.172,340.12 326.572,340.12 	"/>
	<polygon style="fill:#54C9FD;" points="198.572,442.52 326.572,442.52 326.572,340.12 198.572,340.12 	"/>
	<path d="M326.572,510.787H138.839c-18.773,0-34.133-15.36-34.133-34.133V280.387c0-5.12,3.413-8.533,8.533-8.533h238.933
		c5.12,0,8.533,3.413,8.533,8.533v196.267C360.705,495.427,345.345,510.787,326.572,510.787z M121.772,288.92v187.733
		c0,9.387,7.68,17.067,17.067,17.067h187.733c9.387,0,17.067-7.68,17.067-17.067V288.92H121.772z"/>
	<path d="M352.172,288.92H113.239c-18.773,0-34.133-15.36-34.133-34.133s15.36-34.133,34.133-34.133h238.933
		c18.773,0,34.133,15.36,34.133,34.133S370.945,288.92,352.172,288.92z M113.239,237.72c-9.387,0-17.067,7.68-17.067,17.067
		c0,9.387,7.68,17.067,17.067,17.067h238.933c9.387,0,17.067-7.68,17.067-17.067c0-9.387-7.68-17.067-17.067-17.067H113.239z"/>
	<path d="M266.839,237.72h-68.267c-5.12,0-8.533-3.413-8.533-8.533V84.12c0-5.12,3.413-8.533,8.533-8.533h68.267
		c5.12,0,8.533,3.413,8.533,8.533v145.067C275.372,234.307,271.959,237.72,266.839,237.72z M207.105,220.653h51.2v-128h-51.2
		V220.653z"/>
	<path d="M266.839,92.653h-68.267c-5.12,0-8.533-3.413-8.533-8.533c0-23.893,8.533-47.787,23.04-65.707l12.8-16.213
		c3.413-4.267,10.24-4.267,13.653,0l12.8,16.213c14.507,17.92,23.04,41.813,23.04,65.707
		C275.372,89.24,271.959,92.653,266.839,92.653z M207.105,75.587h51.2c-1.707-17.067-8.533-33.28-18.773-46.933l-6.827-7.68
		l-5.973,7.68C215.639,42.307,208.812,58.52,207.105,75.587z"/>
	<path d="M232.705,237.72c-5.12,0-8.533-3.413-8.533-8.533V84.12c0-5.12,3.413-8.533,8.533-8.533s8.533,3.413,8.533,8.533v145.067
		C241.239,234.307,237.825,237.72,232.705,237.72z"/>
	<path d="M363.265,180.547c-0.853,0-1.707,0-2.56,0l-65.707-17.92c-4.267-0.853-6.827-5.973-5.973-10.24L315.479,53.4
		c0.853-2.56,1.707-4.267,4.267-5.12c1.707-0.853,4.267-1.707,6.827-0.853l65.707,17.92c2.56,0,4.267,1.707,5.12,3.413
		c0.853,1.707,1.707,4.267,0.853,6.827l-26.453,98.987c-0.853,2.56-1.707,4.267-4.267,5.12
		C366.679,180.547,364.972,180.547,363.265,180.547z M307.799,148.12l49.493,13.653L379.478,79l-49.493-13.653L307.799,148.12z"/>
	<path d="M415.319,88.387c-0.853,0-1.707,0-2.56,0l-24.747-6.827c-4.267-0.853-6.827-5.973-5.973-10.24
		c0.853-4.267,5.973-7.68,10.24-5.973l24.747,6.827c4.267,0.853,6.827,5.973,5.973,10.24
		C422.145,85.827,418.732,88.387,415.319,88.387z"/>
	<path d="M411.905,175.427c-1.707,0-2.56,0-4.267-0.853l-8.533-2.56c-4.267-0.853-7.68-4.267-10.24-7.68
		c-2.56-4.267-2.56-8.533-1.707-12.8l23.893-90.453c0.853-4.267,4.267-7.68,7.68-10.24c4.267-2.56,8.533-2.56,12.8-1.707l8.533,2.56
		c4.267,0.853,7.68,4.267,10.24,7.68c2.56,4.267,2.56,8.533,1.707,12.8l-23.893,90.453c-0.853,4.267-4.267,7.68-7.68,10.24
		C417.025,174.573,414.465,175.427,411.905,175.427z M427.265,65.347L403.372,155.8l8.533,2.56l0,0l0,0l23.893-90.453
		L427.265,65.347z"/>
	<path d="M390.572,81.56c-0.853,0-1.707,0-2.56,0l-65.707-17.92c-4.267-0.853-6.827-5.973-5.973-10.24l6.827-24.747
		c0.853-4.267,3.413-8.533,7.68-10.24c4.267-2.56,8.533-2.56,12.8-1.707l49.493,13.653c4.267,0.853,7.68,4.267,10.24,7.68
		c2.56,4.267,2.56,8.533,1.707,12.8l-6.827,24.747c-0.853,2.56-1.707,4.267-4.267,5.12C393.132,81.56,391.425,81.56,390.572,81.56z
		 M335.105,49.133l49.493,13.653l4.267-16.213L339.372,32.92L335.105,49.133z"/>
	<path d="M71.425,101.187c-3.413,0-6.827-2.56-8.533-5.973L58.625,79c-2.56-11.947-1.707-23.04,4.267-33.28
		s14.507-17.067,25.6-19.627c11.093-3.413,23.04-1.707,32.427,4.267c10.24,5.973,17.067,14.507,19.627,25.6l4.267,16.213
		c0.853,2.56,0,4.267-0.853,6.827c0,1.707-2.56,3.413-4.267,4.267l-65.707,17.92C73.132,101.187,72.279,101.187,71.425,101.187z
		 M99.585,41.453c-1.707,0-4.267,0-5.973,0.853c-6.827,1.707-12.8,5.973-16.213,11.947c-3.413,5.973-4.267,12.8-2.56,19.627
		l2.56,8.533l49.493-13.653l-2.56-8.533c-1.707-5.973-5.973-11.947-11.947-15.36C108.972,42.307,104.705,41.453,99.585,41.453z"/>
	<path d="M108.119,238.573c-3.413,0-6.827-2.56-8.533-5.973L62.892,94.36c-0.853-2.56,0-4.267,0.853-6.827
		c1.707-1.707,3.413-2.56,5.12-3.413l65.707-17.92c4.267-0.853,9.387,1.707,10.24,5.973l40.96,154.453c0.853,2.56,0,5.12-1.707,7.68
		c0,2.56-2.56,3.413-5.12,3.413h-65.707c-0.853,0-2.56,0-3.413,0C108.972,238.573,108.972,238.573,108.119,238.573z
		 M114.945,220.653h52.907l-36.693-135.68L81.665,98.627L114.945,220.653z"/>
	<path d="M339.372,237.72h-52.907c-2.56,0-5.12-0.853-6.827-3.413c-1.707-1.707-2.56-5.12-1.707-7.68l19.627-72.533
		c0.853-2.56,1.707-4.267,4.267-5.12s4.267-1.707,6.827-0.853l49.493,13.653c4.267,0.853,6.827,5.973,5.973,10.24l-16.213,59.733
		C347.052,235.16,343.639,237.72,339.372,237.72z M297.559,220.653h34.987l11.947-45.227l-33.28-8.533L297.559,220.653z"/>
	<path d="M352.172,451.053h-153.6c-5.12,0-8.533-3.413-8.533-8.533v-102.4c0-5.12,3.413-8.533,8.533-8.533h153.6
		c5.12,0,8.533,3.413,8.533,8.533v102.4C360.705,447.64,357.292,451.053,352.172,451.053z M207.105,433.987h136.533v-85.333H207.105
		V433.987z"/>
	<path d="M352.172,382.787H232.705c-5.12,0-8.533-3.413-8.533-8.533s3.413-8.533,8.533-8.533h119.467
		c5.12,0,8.533,3.413,8.533,8.533S357.292,382.787,352.172,382.787z"/>
	<path d="M352.172,416.92h-102.4c-5.12,0-8.533-3.413-8.533-8.533s3.413-8.533,8.533-8.533h102.4c5.12,0,8.533,3.413,8.533,8.533
		S357.292,416.92,352.172,416.92z"/>
</g>
</svg>