<svg width="127" height="127" viewBox="0 0 127 127" fill="none" xmlns="http://www.w3.org/2000/svg">
<circle cx="63.5" cy="63.5" r="63.5" fill="#C35E9E"/>
<path d="M63.5 55.375C61.893 55.375 60.3221 55.8515 58.986 56.7443C57.6498 57.6371 56.6084 58.9061 55.9935 60.3907C55.3785 61.8754 55.2176 63.509 55.5311 65.0851C55.8446 66.6612 56.6184 68.1089 57.7547 69.2452C58.8911 70.3816 60.3388 71.1554 61.9149 71.4689C63.491 71.7824 65.1246 71.6215 66.6093 71.0065C68.0939 70.3916 69.3629 69.3502 70.2557 68.014C71.1485 66.6779 71.625 65.107 71.625 63.5C71.625 61.3451 70.769 59.2785 69.2452 57.7548C67.7215 56.231 65.6549 55.375 63.5 55.375ZM63.5 66.2083C62.9643 66.2083 62.4407 66.0495 61.9953 65.7519C61.5499 65.4543 61.2028 65.0313 60.9978 64.5364C60.7928 64.0416 60.7392 63.497 60.8437 62.9716C60.9482 62.4463 61.2061 61.9637 61.5849 61.5849C61.9637 61.2062 62.4463 60.9482 62.9716 60.8437C63.497 60.7392 64.0415 60.7928 64.5364 60.9978C65.0313 61.2028 65.4543 61.55 65.7519 61.9953C66.0495 62.4407 66.2083 62.9643 66.2083 63.5C66.2083 64.2183 65.923 64.9072 65.4151 65.4151C64.9072 65.923 64.2183 66.2083 63.5 66.2083ZM87.3604 65.6938C86.9188 65.193 86.6776 64.5468 86.6833 63.8792V63.1208C86.6776 62.4532 86.9188 61.807 87.3604 61.3063L89.0937 59.3563C90.4223 57.865 91.155 55.9368 91.1521 53.9396C91.139 52.5158 90.7664 51.1184 90.0687 49.8771L88.5521 47.1688C87.8385 45.9328 86.812 44.9067 85.5759 44.1935C84.3397 43.4803 82.9375 43.1053 81.5104 43.1063C80.9647 43.1066 80.4204 43.161 79.8854 43.2688L77.3396 43.7833H76.7708C76.3063 43.7761 75.8507 43.6552 75.4437 43.4313L74.7667 43.025C74.2427 42.7693 73.8153 42.3514 73.5479 41.8333L72.7083 39.3688C72.1465 37.7796 71.1043 36.4045 69.7262 35.434C68.3481 34.4635 66.7022 33.9456 65.0167 33.9521H61.9833C60.3108 33.9376 58.6745 34.4396 57.2979 35.3897C55.9213 36.3397 54.8714 37.6915 54.2917 39.2604L53.4521 41.8333C53.2419 42.4623 52.8083 42.9924 52.2333 43.3229L51.5833 43.7292C51.1652 43.9495 50.7017 44.07 50.2292 44.0813H49.6875L47.25 43.4042C46.715 43.2965 46.1707 43.242 45.625 43.2417C44.1803 43.2112 42.7537 43.5666 41.4921 44.2712C40.2306 44.9758 39.1797 46.004 38.4479 47.25L36.9312 49.9583C36.0812 51.4368 35.7179 53.1453 35.8929 54.8418C36.0679 56.5382 36.7723 58.1366 37.9062 59.4104L39.6396 61.3604C40.0812 61.8611 40.3223 62.5074 40.3167 63.175V63.9333C40.3223 64.601 40.0812 65.2472 39.6396 65.7479L37.9062 67.6979C36.5777 69.1891 35.845 71.1174 35.8479 73.1146C35.861 74.5384 36.2336 75.9358 36.9312 77.1771L38.4479 79.8854C39.1615 81.1213 40.188 82.1475 41.4241 82.8607C42.6603 83.5738 44.0625 83.9488 45.4896 83.9479C46.0353 83.9476 46.5796 83.8931 47.1146 83.7854L49.6604 83.2708H50.2021C50.6666 83.278 51.1222 83.3989 51.5292 83.6229L52.2062 84.0292C52.7812 84.3597 53.2148 84.8898 53.425 85.5188L54.2917 87.875C54.8535 89.4642 55.8957 90.8393 57.2738 91.8098C58.6519 92.7803 60.2978 93.2982 61.9833 93.2917H65.0167C66.7022 93.2982 68.3481 92.7803 69.7262 91.8098C71.1043 90.8393 72.1465 89.4642 72.7083 87.875L73.5479 85.4104C73.7581 84.7814 74.1917 84.2514 74.7667 83.9208L75.4167 83.5146C75.8348 83.2942 76.2983 83.1737 76.7708 83.1625H77.3125L79.8854 83.6771C80.4204 83.7848 80.9647 83.8392 81.5104 83.8396C82.9375 83.8405 84.3397 83.4655 85.5759 82.7523C86.812 82.0392 87.8385 81.013 88.5521 79.7771L90.0687 77.0688C90.7664 75.8275 91.139 74.4301 91.1521 73.0063C91.155 71.0091 90.4223 69.0808 89.0937 67.5896L87.3604 65.6938ZM83.325 69.2688L85.0583 71.2188C85.5 71.7195 85.7411 72.3657 85.7354 73.0333C85.7305 73.5102 85.5997 73.9774 85.3562 74.3875L83.8396 77.0958C83.6033 77.5052 83.2639 77.8455 82.8553 78.0831C82.4467 78.3207 81.9831 78.4472 81.5104 78.45H80.9687L78.4229 77.9354C76.4696 77.5304 74.4356 77.8582 72.7083 78.8563L72.0583 79.2354C70.3336 80.2271 69.0326 81.8172 68.4021 83.7042L67.5896 86.1958C67.4079 86.7338 67.0617 87.201 66.6 87.5315C66.1383 87.862 65.5844 88.039 65.0167 88.0375H61.9833C61.4155 88.039 60.8617 87.862 60.4 87.5315C59.9383 87.201 59.5921 86.7338 59.4104 86.1958L58.5979 83.7042C57.9674 81.8172 56.6664 80.2271 54.9417 79.2354L54.2646 78.8563C53.0369 78.1495 51.6457 77.7761 50.2292 77.7729C49.6745 77.7733 49.1212 77.8277 48.5771 77.9354V77.9354L46.0312 78.45H45.4896C45.0123 78.4519 44.5431 78.3277 44.1293 78.0899C43.7155 77.8521 43.3719 77.5091 43.1333 77.0958L41.6437 74.3875C41.4003 73.9774 41.2695 73.5102 41.2646 73.0333C41.2286 72.3796 41.4306 71.735 41.8333 71.2188L43.5667 69.2688C44.8952 67.7775 45.6279 65.8493 45.625 63.8521V63.0938C45.6279 61.0966 44.8952 59.1683 43.5667 57.6771L41.8333 55.7813C41.3917 55.2805 41.1506 54.6343 41.1562 53.9667C41.203 53.4983 41.371 53.0503 41.6437 52.6667L43.1604 49.9583C43.3967 49.549 43.7361 49.2086 44.1447 48.9711C44.5533 48.7335 45.0169 48.607 45.4896 48.6042H46.0312L48.5771 49.1188C49.121 49.2277 49.6744 49.2822 50.2292 49.2813C51.6457 49.2781 53.0369 48.9046 54.2646 48.1979L54.9417 47.8188C56.6462 46.8535 57.9446 45.305 58.5979 43.4583L59.4104 40.9667C59.5921 40.4287 59.9383 39.9615 60.4 39.631C60.8617 39.3006 61.4155 39.1235 61.9833 39.125H65.0167C65.5844 39.1235 66.1383 39.3006 66.6 39.631C67.0617 39.9615 67.4079 40.4287 67.5896 40.9667L68.4021 43.4583C69.0326 45.3453 70.3336 46.9354 72.0583 47.9271L72.7354 48.3063C73.9631 49.013 75.3542 49.3864 76.7708 49.3896C77.3256 49.3905 77.879 49.3361 78.4229 49.2271L80.9687 48.7125H81.5104C81.9876 48.7106 82.4569 48.8349 82.8707 49.0727C83.2845 49.3105 83.628 49.6534 83.8667 50.0667L85.3562 52.775C85.5997 53.1851 85.7305 53.6523 85.7354 54.1292C85.7411 54.7968 85.5 55.443 85.0583 55.9438L83.325 57.8938C81.9965 59.385 81.2637 61.3133 81.2667 63.3104V64.0688C81.2637 66.0659 81.9965 67.9942 83.325 69.4854" fill="white"/>
</svg>
